<?xml version="1.0" encoding="utf-8"?>
<!-- Generator: Adobe Illustrator 27.1.1, SVG Export Plug-In . SVG Version: 6.00 Build 0)  -->
<svg version="1.1" id="Layer_1" xmlns="http://www.w3.org/2000/svg" xmlns:xlink="http://www.w3.org/1999/xlink" x="0px" y="0px"
	 viewBox="0 0 200 200" style="enable-background:new 0 0 200 200;" xml:space="preserve">
<style type="text/css">
	.st0{fill:#007AC2;}
	.st1{fill:none;stroke:#FFFFFF;stroke-width:3;stroke-miterlimit:10;}
	.st2{fill:none;stroke:#007AC2;stroke-width:3;stroke-miterlimit:10;}
</style>
<circle class="st0" cx="100" cy="100" r="100"/>
<path class="st1" d="M99.7,142.7V52.9c0,0-16.8-13.1-51.9-12.3v89.8C47.7,130.4,79.3,128.5,99.7,142.7z"/>
<path class="st1" d="M56.7,61.2c0,0,17.8-0.7,32.7,6.1"/>
<path class="st1" d="M56.7,71.8c0,0,17.8-0.7,32.7,6.1"/>
<path class="st1" d="M56.7,82.3c0,0,17.8-0.7,32.7,6.1"/>
<path class="st1" d="M56.7,92.9c0,0,17.8-0.7,32.7,6.1"/>
<path class="st1" d="M56.7,103.4c0,0,17.8-0.7,32.7,6.1"/>
<path class="st1" d="M56.7,113.9c0,0,17.8-0.7,32.7,6.1"/>
<polyline class="st1" points="47.7,49 35.9,49 35.9,152 99.7,152 99.7,142.7 53.4,142.7 53.4,130.4 "/>
<path class="st1" d="M119.7,133.8c-6.9,1.8-13.9,4.7-20,8.9V52.9c0,0,16.8-13.1,51.9-12.3v63.5"/>
<path class="st1" d="M142.7,61.2c0,0-17.8-0.7-32.7,6.1"/>
<path class="st1" d="M142.7,71.8c0,0-17.8-0.7-32.7,6.1"/>
<path class="st1" d="M142.7,82.3c0,0-17.8-0.7-32.7,6.1"/>
<path class="st1" d="M142.7,92.9c0,0-17.8-0.7-32.7,6.1"/>
<path class="st1" d="M142.7,103.4c0,0-17.8-0.7-32.7,6.1"/>
<polyline class="st1" points="129.5,152 99.7,152 99.7,142.7 118.3,142.7 "/>
<polyline class="st1" points="151.6,49 163.4,49 163.4,110.2 "/>
<path class="st1" d="M175,140.2v-7.8l-7-1.7c-0.4-1.2-0.8-2.3-1.4-3.3l3.7-6.1l-5.5-5.5l-6.1,3.7c-1.1-0.6-2.2-1-3.3-1.4l-1.7-6.9
	h-7.8l-1.7,7c-1.2,0.4-2.3,0.8-3.3,1.4l-6.1-3.7l-5.5,5.5l3.7,6.1c-0.6,1.1-1,2.2-1.4,3.3l-6.9,1.7v7.8l7,1.7
	c0.4,1.2,0.8,2.3,1.4,3.3l-3.7,6.1l5.5,5.5l6.1-3.7c1.1,0.6,2.2,1,3.3,1.4l1.7,6.9h7.8l1.7-7c1.2-0.4,2.3-0.8,3.3-1.4l6.1,3.7
	l5.5-5.5l-3.7-6.1c0.6-1.1,1-2.2,1.4-3.3L175,140.2z"/>
<circle class="st1" cx="149.9" cy="136.4" r="11.4"/>
</svg>
