<?xml version="1.0" encoding="utf-8"?>
<!-- Generator: Adobe Illustrator 26.4.1, SVG Export Plug-In . SVG Version: 6.00 Build 0)  -->
<svg version="1.1" id="Layer_1" xmlns="http://www.w3.org/2000/svg" xmlns:xlink="http://www.w3.org/1999/xlink" x="0px" y="0px"
	 viewBox="0 0 120 50" style="enable-background:new 0 0 120 50;" xml:space="preserve">
<style type="text/css">
	.st0{fill:#007AC2;}
	.st1{fill:#FFFFFF;}
</style>
<g>
	<g>
		<g>
			<path class="st0" d="M1.84,24.85c0-13.1,10.62-23.73,23.73-23.73c13.1,0,23.73,10.62,23.73,23.73S38.67,48.58,25.57,48.58
				C12.46,48.58,1.84,37.96,1.84,24.85z"/>
		</g>
		<polygon class="st1" points="35.58,34.61 46.91,15.09 38.23,15.09 26.9,34.61 		"/>
		<g>
			<polygon class="st1" points="15.69,34.61 24.36,34.61 35.69,15.09 27.01,15.09 			"/>
		</g>
		<polygon class="st1" points="13.15,34.61 24.47,15.09 15.8,15.09 4.47,34.61 		"/>
	</g>
	<g>
		<rect x="81.5" y="15.1" width="4.52" height="19.63"/>
	</g>
	<g>
		<rect x="87.15" y="15.1" width="4.52" height="19.63"/>
	</g>
	<g>
		<rect x="75.85" y="15.1" width="4.52" height="3.51"/>
		<rect x="75.85" y="19.83" width="4.52" height="14.9"/>
	</g>
	<g>
		<polygon points="64.56,34.73 66.43,34.73 70.34,23.22 70.34,34.73 74.86,34.73 74.86,15.1 68.35,15.1 64.45,26.46 60.55,15.1 
			54.04,15.1 54.04,34.73 58.56,34.73 58.56,23.22 62.47,34.73 64.35,34.73 		"/>
	</g>
	<g>
		<path d="M113,25.54v9.19h-4.52v-14.9H113v1.61c1.22-1.49,2.26-1.61,3.87-1.61v4.08C114.97,23.82,113.51,24.29,113,25.54z"/>
	</g>
	<path d="M107.37,29.89c-1.15,2.94-4.02,5.02-7.37,5.02c-4.37,0-7.91-3.54-7.91-7.91c0-4.37,3.54-7.91,7.91-7.91
		c4.37,0,7.91,3.54,7.91,7.91c0,0.55-0.06,1.08-0.16,1.59l-11.27,0.01c0.61,1.34,1.96,2.27,3.52,2.27c0.99,0,1.9-0.37,2.58-0.99
		L107.37,29.89z M103.39,25.13c-0.66-1.19-1.93-2-3.39-2c-1.46,0-2.73,0.81-3.39,2H103.39z"/>
	<path d="M114.79,33.2c0-0.93,0.76-1.62,1.65-1.62c0.89,0,1.64,0.69,1.64,1.62c0,0.94-0.76,1.63-1.64,1.63
		C115.55,34.83,114.79,34.14,114.79,33.2z M116.44,34.56c0.74,0,1.32-0.58,1.32-1.36c0-0.77-0.58-1.35-1.32-1.35
		c-0.74,0-1.32,0.58-1.32,1.35C115.12,33.99,115.7,34.56,116.44,34.56z M116.1,34.14h-0.28v-1.87h0.71c0.44,0,0.66,0.16,0.66,0.53
		c0,0.34-0.21,0.48-0.49,0.52l0.53,0.83h-0.32l-0.49-0.81h-0.33V34.14z M116.44,33.09c0.24,0,0.46-0.02,0.46-0.31
		c0-0.23-0.21-0.27-0.41-0.27h-0.39v0.58H116.44z"/>
</g>
</svg>
