<?xml version="1.0" encoding="utf-8"?>
<!-- Generator: Adobe Illustrator 27.1.1, SVG Export Plug-In . SVG Version: 6.00 Build 0)  -->
<svg version="1.1" id="Layer_1" xmlns="http://www.w3.org/2000/svg" xmlns:xlink="http://www.w3.org/1999/xlink" x="0px" y="0px"
	 viewBox="0 0 200 200" style="enable-background:new 0 0 200 200;" xml:space="preserve">
<style type="text/css">
	.st0{fill:#007AC2;}
	.st1{fill:none;stroke:#FFFFFF;stroke-width:3;stroke-miterlimit:10;}
	.st2{fill:none;stroke:#007AC2;stroke-width:3;stroke-miterlimit:10;}
	.st3{fill:none;stroke:#FFFFFF;stroke-width:3;stroke-linejoin:bevel;stroke-miterlimit:10;}
</style>
<circle class="st0" cx="100" cy="100" r="100"/>
<polyline class="st1" points="110.6,161.9 51,161.9 51,49.2 117.8,49.2 135.3,66.7 135.3,81.1 "/>
<polyline class="st1" points="61.4,49.2 61.4,38.8 147.5,38.8 147.5,90.6 "/>
<line class="st1" x1="59.8" y1="78.1" x2="110.6" y2="78.1"/>
<line class="st1" x1="85" y1="59.8" x2="110.6" y2="59.8"/>
<line class="st1" x1="75.6" y1="59.8" x2="78.6" y2="59.8"/>
<line class="st1" x1="67.7" y1="59.8" x2="70.7" y2="59.8"/>
<line class="st1" x1="59.8" y1="59.8" x2="62.8" y2="59.8"/>
<line class="st1" x1="59.8" y1="86.4" x2="110.6" y2="86.4"/>
<line class="st1" x1="59.8" y1="102.5" x2="93.9" y2="102.5"/>
<line class="st1" x1="59.8" y1="110.8" x2="93.9" y2="110.8"/>
<line class="st1" x1="59.8" y1="119.2" x2="93.9" y2="119.2"/>
<polyline class="st1" points="117.8,49.2 117.8,66.7 135.3,66.7 "/>
<path class="st3" d="M135.3,163.5l8-3c12.1-4.6,20.1-16.2,20.1-29.1V101c-23.4,0-28.2-13.8-28.2-13.8s-4.7,13.8-28.2,13.8v30.4
	c0,13,8,24.5,20.1,29.1C127.3,160.5,135.3,163.5,135.3,163.5z"/>
<circle class="st3" cx="135.3" cy="127.3" r="18.6"/>
<polyline class="st1" points="125.9,127.1 132.3,133.5 144.7,121.1 "/>
</svg>
