<?xml version="1.0" encoding="utf-8"?>
<!-- Generator: Adobe Illustrator 27.1.1, SVG Export Plug-In . SVG Version: 6.00 Build 0)  -->
<svg version="1.1" id="Layer_1" xmlns="http://www.w3.org/2000/svg" xmlns:xlink="http://www.w3.org/1999/xlink" x="0px" y="0px"
	 viewBox="0 0 200 200" style="enable-background:new 0 0 200 200;" xml:space="preserve">
<style type="text/css">
	.st0{fill:#007AC2;}
	.st1{fill:none;stroke:#FFFFFF;stroke-width:3;stroke-miterlimit:10;}
	.st2{fill:none;stroke:#007AC2;stroke-width:3;stroke-miterlimit:10;}
</style>
<circle class="st0" cx="100" cy="100" r="100"/>
<circle class="st1" cx="142.6" cy="119.4" r="9.8"/>
<path class="st1" d="M162.5,161.3v-24.1c0-3.5-2.8-6.3-6.3-6.3h-26.7c-3.5,0-6.3,2.8-6.3,6.3v24.1"/>
<line class="st1" x1="132.2" y1="140.2" x2="132.2" y2="161.3"/>
<line class="st1" x1="153.4" y1="140.2" x2="153.4" y2="161.3"/>
<circle class="st1" cx="57" cy="119.4" r="9.8"/>
<path class="st1" d="M37.5,161.3v-24.1c0-3.5,2.8-6.3,6.3-6.3h23.4c2.2,0,4.3,0.7,6,2.1l7.5,5.8c1.3,1,2.7,1.6,4.3,1.8l11.8,1.6
	c0.5,0.1,0.9,0.5,0.9,1v4.5c0,0.5-0.4,1-1,1l-11.1,0.1c-2,0-3.9-0.5-5.6-1.5l-10.2-5.9c-0.9-0.5-2,0.1-2,1.2v18.8"/>
<line class="st1" x1="46.6" y1="140.2" x2="46.6" y2="161.3"/>
<polygon class="st1" points="64.7,89.3 64.7,101.6 75.5,89.3 111.8,89.3 111.8,35.4 48.3,35.4 48.3,89.3 "/>
<polyline class="st1" points="111.8,49.4 147.5,49.4 147.5,103.3 123.3,103.3 123.3,115.6 112.4,103.3 84,103.3 84,89.3 "/>
<path class="st1" d="M98.7,65.2v-5.8l-5.2-1.3c-0.3-0.9-0.6-1.7-1-2.5l2.8-4.5l-4.1-4.1l-4.6,2.8c-0.8-0.4-1.6-0.8-2.5-1l-1.2-5.1
	h-5.8l-1.3,5.2c-0.9,0.3-1.7,0.6-2.5,1l-4.5-2.8l-4.1,4.1l2.8,4.6c-0.4,0.8-0.8,1.6-1,2.5l-5.1,1.2v5.8l5.2,1.3
	c0.3,0.9,0.6,1.7,1,2.5l-2.8,4.5l4.1,4.1l4.6-2.8c0.8,0.4,1.6,0.8,2.5,1l1.2,5.1H83l1.3-5.2c0.9-0.3,1.7-0.6,2.5-1l4.5,2.8l4.1-4.1
	L92.5,69c0.4-0.8,0.8-1.6,1-2.5L98.7,65.2z"/>
<circle class="st1" cx="80" cy="62.4" r="7.4"/>
<line class="st1" x1="111.8" y1="59.8" x2="137.1" y2="59.8"/>
<line class="st1" x1="111.8" y1="68.5" x2="137.1" y2="68.5"/>
<line class="st1" x1="111.8" y1="77.2" x2="137.1" y2="77.2"/>
<line class="st1" x1="111.8" y1="85.9" x2="137.1" y2="85.9"/>
<line class="st1" x1="94.2" y1="94.6" x2="137.1" y2="94.6"/>
</svg>
